<svg width="25" height="24" viewBox="0 0 25 24" fill="none" xmlns="http://www.w3.org/2000/svg">
<path d="M9.5 5.25V18.75" stroke="white" stroke-width="2" stroke-linecap="round" stroke-linejoin="round"/>
<path d="M2.75 15.6741C2.74997 15.5013 2.80968 15.3338 2.91902 15.2C3.02836 15.0662 3.18059 14.9744 3.34992 14.94C4.02749 14.8016 4.63645 14.4334 5.07379 13.8976C5.51113 13.3619 5.75 12.6916 5.75 12C5.75 11.3084 5.51113 10.6381 5.07379 10.1024C4.63645 9.56665 4.02749 9.19843 3.34992 9.06C3.18059 9.02562 3.02836 8.93376 2.91902 8.79997C2.80968 8.66618 2.74997 8.4987 2.75 8.32592V6C2.75 5.80109 2.82902 5.61032 2.96967 5.46967C3.11032 5.32902 3.30109 5.25 3.5 5.25H21.5C21.6989 5.25 21.8897 5.32902 22.0303 5.46967C22.171 5.61032 22.25 5.80109 22.25 6V8.32592C22.25 8.4987 22.1903 8.66618 22.081 8.79997C21.9716 8.93376 21.8194 9.02563 21.6501 9.06C20.9725 9.19843 20.3635 9.56665 19.9262 10.1024C19.4889 10.6381 19.25 11.3084 19.25 12C19.25 12.6916 19.4889 13.3619 19.9262 13.8976C20.3635 14.4334 20.9725 14.8016 21.6501 14.94C21.8194 14.9744 21.9716 15.0662 22.081 15.2C22.1903 15.3338 22.25 15.5013 22.25 15.6741V18C22.25 18.1989 22.171 18.3897 22.0303 18.5303C21.8897 18.671 21.6989 18.75 21.5 18.75H3.5C3.30109 18.75 3.11032 18.671 2.96967 18.5303C2.82902 18.3897 2.75 18.1989 2.75 18V15.6741Z" stroke="white" stroke-width="2" stroke-linecap="round" stroke-linejoin="round"/>
</svg>
