<svg width="20" height="14" viewBox="0 0 20 14" fill="none" xmlns="http://www.w3.org/2000/svg">
<path d="M1.875 10.0617C1.87497 9.91775 1.92473 9.77818 2.01585 9.66669C2.10696 9.5552 2.23383 9.47865 2.37494 9.45C2.93958 9.33464 3.44704 9.0278 3.81149 8.58136C4.17594 8.13492 4.375 7.57631 4.375 7C4.375 6.42369 4.17594 5.86508 3.81149 5.41864C3.44704 4.9722 2.93958 4.66536 2.37494 4.55C2.23383 4.52135 2.10696 4.4448 2.01585 4.33331C1.92473 4.22182 1.87497 4.08225 1.875 3.93826V2C1.875 1.83424 1.94085 1.67527 2.05806 1.55806C2.17527 1.44085 2.33424 1.375 2.5 1.375H17.5C17.6658 1.375 17.8247 1.44085 17.9419 1.55806C18.0592 1.67527 18.125 1.83424 18.125 2V3.93826C18.125 4.08225 18.0753 4.22182 17.9842 4.33331C17.893 4.4448 17.7662 4.52136 17.6251 4.55C17.0604 4.66536 16.553 4.97221 16.1885 5.41865C15.8241 5.86508 15.625 6.4237 15.625 7C15.625 7.57631 15.8241 8.13493 16.1885 8.58136C16.553 9.0278 17.0604 9.33465 17.6251 9.45001C17.7662 9.47865 17.893 9.55521 17.9841 9.6667C18.0753 9.77819 18.125 9.91775 18.125 10.0617V12C18.125 12.1658 18.0592 12.3247 17.9419 12.4419C17.8247 12.5592 17.6658 12.625 17.5 12.625H2.5C2.33424 12.625 2.17527 12.5592 2.05806 12.4419C1.94085 12.3247 1.875 12.1658 1.875 12V10.0617Z" stroke="white" stroke-width="2" stroke-linecap="round" stroke-linejoin="round"/>
</svg>
